<mxfile host="7fa309a8-d710-42b3-9238-336883f9f2bd" modified="2020-07-28T10:36:57.994Z" agent="5.0 (Windows NT 10.0; Win64; x64) AppleWebKit/537.36 (KHTML, like Gecko) Code/1.47.3 Chrome/78.0.3904.130 Electron/7.3.2 Safari/537.36" etag="T0uT1b7iId2XA2pNz9sO" version="13.1.3">
    <diagram id="6hGFLwfOUW9BJ-s0fimq" name="Page-1">
        <mxGraphModel dx="1723" dy="1217" grid="1" gridSize="10" guides="1" tooltips="1" connect="1" arrows="1" fold="1" page="1" pageScale="1" pageWidth="1169" pageHeight="827" math="0" shadow="0">
            <root>
                <mxCell id="0"/>
                <mxCell id="1" parent="0"/>
                <mxCell id="48" value="" style="group" vertex="1" connectable="0" parent="1">
                    <mxGeometry x="295" y="110" width="580" height="570" as="geometry"/>
                </mxCell>
                <mxCell id="15" value="" style="group" vertex="1" connectable="0" parent="48">
                    <mxGeometry y="300" width="160" height="270" as="geometry"/>
                </mxCell>
                <mxCell id="14" value="" style="shape=cylinder;whiteSpace=wrap;html=1;boundedLbl=1;backgroundOutline=1;" vertex="1" parent="15">
                    <mxGeometry width="160" height="270" as="geometry"/>
                </mxCell>
                <mxCell id="11" value="Storage Workers&lt;br&gt;C++" style="rounded=1;whiteSpace=wrap;html=1;" vertex="1" parent="15">
                    <mxGeometry x="20" y="136.3545150501672" width="120" height="54.18060200668896" as="geometry"/>
                </mxCell>
                <mxCell id="12" value="Inner Storage API" style="rounded=1;whiteSpace=wrap;html=1;" vertex="1" parent="15">
                    <mxGeometry x="19" y="73.1438127090301" width="120" height="54.18060200668896" as="geometry"/>
                </mxCell>
                <mxCell id="13" value="Database" style="rounded=1;whiteSpace=wrap;html=1;" vertex="1" parent="15">
                    <mxGeometry x="20" y="199.56521739130434" width="120" height="54.18060200668896" as="geometry"/>
                </mxCell>
                <mxCell id="37" value="" style="endArrow=classic;html=1;exitX=1;exitY=0.5;exitDx=0;exitDy=0;entryX=1.007;entryY=0.569;entryDx=0;entryDy=0;entryPerimeter=0;" edge="1" parent="15" source="12" target="11">
                    <mxGeometry width="50" height="50" relative="1" as="geometry">
                        <mxPoint x="150" y="180" as="sourcePoint"/>
                        <mxPoint x="200" y="130" as="targetPoint"/>
                        <Array as="points">
                            <mxPoint x="150" y="100"/>
                            <mxPoint x="150" y="167"/>
                        </Array>
                    </mxGeometry>
                </mxCell>
                <mxCell id="40" value="" style="endArrow=classic;startArrow=classic;html=1;exitX=-0.009;exitY=0.446;exitDx=0;exitDy=0;exitPerimeter=0;entryX=0;entryY=0.5;entryDx=0;entryDy=0;" edge="1" parent="15" source="13" target="12">
                    <mxGeometry width="50" height="50" relative="1" as="geometry">
                        <mxPoint x="230" y="100" as="sourcePoint"/>
                        <mxPoint x="280" y="50" as="targetPoint"/>
                        <Array as="points">
                            <mxPoint x="10" y="224"/>
                            <mxPoint x="10" y="100"/>
                        </Array>
                    </mxGeometry>
                </mxCell>
                <mxCell id="43" value="" style="endArrow=classic;html=1;exitX=1;exitY=0.75;exitDx=0;exitDy=0;entryX=1;entryY=0.5;entryDx=0;entryDy=0;" edge="1" parent="15" source="11" target="13">
                    <mxGeometry width="50" height="50" relative="1" as="geometry">
                        <mxPoint x="170" y="240" as="sourcePoint"/>
                        <mxPoint x="220" y="190" as="targetPoint"/>
                        <Array as="points">
                            <mxPoint x="150" y="177"/>
                            <mxPoint x="150" y="227"/>
                        </Array>
                    </mxGeometry>
                </mxCell>
                <mxCell id="16" value="" style="group" vertex="1" connectable="0" parent="48">
                    <mxGeometry x="200" y="300" width="160" height="270" as="geometry"/>
                </mxCell>
                <mxCell id="17" value="" style="shape=cylinder;whiteSpace=wrap;html=1;boundedLbl=1;backgroundOutline=1;" vertex="1" parent="16">
                    <mxGeometry width="160" height="270" as="geometry"/>
                </mxCell>
                <mxCell id="18" value="Storage Workers&lt;br&gt;C++" style="rounded=1;whiteSpace=wrap;html=1;" vertex="1" parent="16">
                    <mxGeometry x="20" y="136.3545150501672" width="120" height="54.18060200668896" as="geometry"/>
                </mxCell>
                <mxCell id="19" value="Inner Storage API" style="rounded=1;whiteSpace=wrap;html=1;" vertex="1" parent="16">
                    <mxGeometry x="19" y="73.1438127090301" width="120" height="54.18060200668896" as="geometry"/>
                </mxCell>
                <mxCell id="20" value="Database" style="rounded=1;whiteSpace=wrap;html=1;" vertex="1" parent="16">
                    <mxGeometry x="20" y="199.56521739130434" width="120" height="54.18060200668896" as="geometry"/>
                </mxCell>
                <mxCell id="35" value="" style="endArrow=classic;html=1;exitX=1;exitY=0.5;exitDx=0;exitDy=0;entryX=1;entryY=0.5;entryDx=0;entryDy=0;" edge="1" parent="16" source="19" target="18">
                    <mxGeometry width="50" height="50" relative="1" as="geometry">
                        <mxPoint x="60" y="100" as="sourcePoint"/>
                        <mxPoint x="110" y="50" as="targetPoint"/>
                        <Array as="points">
                            <mxPoint x="150" y="100"/>
                            <mxPoint x="150" y="163"/>
                        </Array>
                    </mxGeometry>
                </mxCell>
                <mxCell id="41" value="" style="endArrow=classic;startArrow=classic;html=1;exitX=0;exitY=0.5;exitDx=0;exitDy=0;entryX=0;entryY=0.5;entryDx=0;entryDy=0;" edge="1" parent="16" source="20" target="19">
                    <mxGeometry width="50" height="50" relative="1" as="geometry">
                        <mxPoint x="60" y="100" as="sourcePoint"/>
                        <mxPoint x="110" y="50" as="targetPoint"/>
                        <Array as="points">
                            <mxPoint x="10" y="227"/>
                            <mxPoint x="10" y="100"/>
                        </Array>
                    </mxGeometry>
                </mxCell>
                <mxCell id="44" value="" style="endArrow=classic;html=1;exitX=1;exitY=0.75;exitDx=0;exitDy=0;entryX=1;entryY=0.5;entryDx=0;entryDy=0;" edge="1" parent="16" source="18" target="20">
                    <mxGeometry width="50" height="50" relative="1" as="geometry">
                        <mxPoint x="160" y="230" as="sourcePoint"/>
                        <mxPoint x="210" y="180" as="targetPoint"/>
                        <Array as="points">
                            <mxPoint x="150" y="177"/>
                            <mxPoint x="150" y="220"/>
                        </Array>
                    </mxGeometry>
                </mxCell>
                <mxCell id="21" value="" style="group" vertex="1" connectable="0" parent="48">
                    <mxGeometry x="400" y="300" width="160" height="270" as="geometry"/>
                </mxCell>
                <mxCell id="22" value="" style="shape=cylinder;whiteSpace=wrap;html=1;boundedLbl=1;backgroundOutline=1;" vertex="1" parent="21">
                    <mxGeometry width="160" height="270" as="geometry"/>
                </mxCell>
                <mxCell id="23" value="Storage Workers&lt;br&gt;C++" style="rounded=1;whiteSpace=wrap;html=1;" vertex="1" parent="21">
                    <mxGeometry x="20" y="136.3545150501672" width="120" height="54.18060200668896" as="geometry"/>
                </mxCell>
                <mxCell id="24" value="Inner Storage API" style="rounded=1;whiteSpace=wrap;html=1;" vertex="1" parent="21">
                    <mxGeometry x="19" y="73.1438127090301" width="120" height="54.18060200668896" as="geometry"/>
                </mxCell>
                <mxCell id="25" value="Database" style="rounded=1;whiteSpace=wrap;html=1;" vertex="1" parent="21">
                    <mxGeometry x="20" y="199.56521739130434" width="120" height="54.18060200668896" as="geometry"/>
                </mxCell>
                <mxCell id="34" value="" style="endArrow=classic;html=1;exitX=1;exitY=0.5;exitDx=0;exitDy=0;entryX=1;entryY=0.5;entryDx=0;entryDy=0;" edge="1" parent="21" source="24" target="23">
                    <mxGeometry width="50" height="50" relative="1" as="geometry">
                        <mxPoint x="130" y="40" as="sourcePoint"/>
                        <mxPoint x="180" y="-10" as="targetPoint"/>
                        <Array as="points">
                            <mxPoint x="150" y="100"/>
                            <mxPoint x="150" y="163"/>
                        </Array>
                    </mxGeometry>
                </mxCell>
                <mxCell id="42" value="" style="endArrow=classic;startArrow=classic;html=1;entryX=0;entryY=0.5;entryDx=0;entryDy=0;exitX=0;exitY=0.5;exitDx=0;exitDy=0;" edge="1" parent="21" source="25" target="24">
                    <mxGeometry width="50" height="50" relative="1" as="geometry">
                        <mxPoint x="-140" y="100" as="sourcePoint"/>
                        <mxPoint x="-90" y="50" as="targetPoint"/>
                        <Array as="points">
                            <mxPoint x="10" y="227"/>
                            <mxPoint x="10" y="100"/>
                        </Array>
                    </mxGeometry>
                </mxCell>
                <mxCell id="45" value="" style="endArrow=classic;html=1;exitX=1.003;exitY=0.695;exitDx=0;exitDy=0;exitPerimeter=0;entryX=1;entryY=0.5;entryDx=0;entryDy=0;" edge="1" parent="21" source="23" target="25">
                    <mxGeometry width="50" height="50" relative="1" as="geometry">
                        <mxPoint x="210" y="190" as="sourcePoint"/>
                        <mxPoint x="260" y="140" as="targetPoint"/>
                        <Array as="points">
                            <mxPoint x="150" y="174"/>
                            <mxPoint x="150" y="227"/>
                        </Array>
                    </mxGeometry>
                </mxCell>
                <mxCell id="26" value="" style="group" vertex="1" connectable="0" parent="48">
                    <mxGeometry x="80" width="400" height="220" as="geometry"/>
                </mxCell>
                <mxCell id="2" value="RESTful API&lt;br&gt;Python" style="rounded=1;whiteSpace=wrap;html=1;" vertex="1" parent="26">
                    <mxGeometry x="141" width="120" height="60" as="geometry"/>
                </mxCell>
                <mxCell id="6" value="Database" style="rounded=1;whiteSpace=wrap;html=1;" vertex="1" parent="26">
                    <mxGeometry x="280" y="160" width="120" height="60" as="geometry"/>
                </mxCell>
                <mxCell id="7" value="Syncing facilities" style="rounded=1;whiteSpace=wrap;html=1;" vertex="1" parent="26">
                    <mxGeometry y="160" width="120" height="60" as="geometry"/>
                </mxCell>
                <mxCell id="8" value="" style="endArrow=classic;html=1;exitX=0.75;exitY=1;exitDx=0;exitDy=0;entryX=0;entryY=0.5;entryDx=0;entryDy=0;" edge="1" parent="26" source="2" target="6">
                    <mxGeometry width="50" height="50" relative="1" as="geometry">
                        <mxPoint x="530" y="330" as="sourcePoint"/>
                        <mxPoint x="580" y="280" as="targetPoint"/>
                        <Array as="points">
                            <mxPoint x="230" y="190"/>
                        </Array>
                    </mxGeometry>
                </mxCell>
                <mxCell id="10" value="" style="endArrow=classic;startArrow=classic;html=1;exitX=1;exitY=0.5;exitDx=0;exitDy=0;entryX=0.25;entryY=1;entryDx=0;entryDy=0;" edge="1" parent="26" source="7" target="2">
                    <mxGeometry width="50" height="50" relative="1" as="geometry">
                        <mxPoint x="530" y="330" as="sourcePoint"/>
                        <mxPoint x="580" y="280" as="targetPoint"/>
                        <Array as="points">
                            <mxPoint x="170" y="190"/>
                        </Array>
                    </mxGeometry>
                </mxCell>
                <mxCell id="27" value="" style="endArrow=classic;startArrow=classic;html=1;entryX=0.5;entryY=1;entryDx=0;entryDy=0;exitX=0.5;exitY=0;exitDx=0;exitDy=0;" edge="1" parent="48" source="17" target="2">
                    <mxGeometry width="50" height="50" relative="1" as="geometry">
                        <mxPoint x="281" y="220" as="sourcePoint"/>
                        <mxPoint x="650" y="190" as="targetPoint"/>
                    </mxGeometry>
                </mxCell>
                <mxCell id="30" value="" style="endArrow=classic;startArrow=classic;html=1;entryX=0.5;entryY=1;entryDx=0;entryDy=0;exitX=0.5;exitY=0;exitDx=0;exitDy=0;" edge="1" parent="48" source="14" target="2">
                    <mxGeometry width="50" height="50" relative="1" as="geometry">
                        <mxPoint x="320" y="270" as="sourcePoint"/>
                        <mxPoint x="370" y="220" as="targetPoint"/>
                        <Array as="points">
                            <mxPoint x="80" y="260"/>
                            <mxPoint x="281" y="260"/>
                        </Array>
                    </mxGeometry>
                </mxCell>
                <mxCell id="31" value="" style="endArrow=classic;startArrow=classic;html=1;entryX=0.5;entryY=1;entryDx=0;entryDy=0;exitX=0.5;exitY=0;exitDx=0;exitDy=0;" edge="1" parent="48" source="22" target="2">
                    <mxGeometry width="50" height="50" relative="1" as="geometry">
                        <mxPoint x="320" y="270" as="sourcePoint"/>
                        <mxPoint x="370" y="220" as="targetPoint"/>
                        <Array as="points">
                            <mxPoint x="480" y="260"/>
                            <mxPoint x="281" y="260"/>
                        </Array>
                    </mxGeometry>
                </mxCell>
                <mxCell id="32" value="" style="endArrow=classic;startArrow=classic;html=1;exitX=1.003;exitY=0.322;exitDx=0;exitDy=0;entryX=0;entryY=0.5;entryDx=0;entryDy=0;exitPerimeter=0;" edge="1" parent="48" source="12" target="7">
                    <mxGeometry width="50" height="50" relative="1" as="geometry">
                        <mxPoint x="550" y="670" as="sourcePoint"/>
                        <mxPoint x="600" y="620" as="targetPoint"/>
                        <Array as="points">
                            <mxPoint x="170" y="391"/>
                            <mxPoint x="170" y="240"/>
                            <mxPoint x="30" y="240"/>
                            <mxPoint x="30" y="190"/>
                        </Array>
                    </mxGeometry>
                </mxCell>
                <mxCell id="33" value="" style="endArrow=classic;startArrow=classic;html=1;exitX=1;exitY=0.5;exitDx=0;exitDy=0;entryX=0;entryY=0.5;entryDx=0;entryDy=0;" edge="1" parent="48" source="19" target="24">
                    <mxGeometry width="50" height="50" relative="1" as="geometry">
                        <mxPoint x="410" y="690" as="sourcePoint"/>
                        <mxPoint x="460" y="640" as="targetPoint"/>
                    </mxGeometry>
                </mxCell>
                <mxCell id="46" value="" style="endArrow=classic;startArrow=classic;html=1;exitX=1;exitY=0.25;exitDx=0;exitDy=0;" edge="1" parent="48" source="19">
                    <mxGeometry width="50" height="50" relative="1" as="geometry">
                        <mxPoint x="380" y="390" as="sourcePoint"/>
                        <mxPoint x="80" y="190" as="targetPoint"/>
                        <Array as="points">
                            <mxPoint x="380" y="387"/>
                            <mxPoint x="380" y="250"/>
                            <mxPoint x="80" y="250"/>
                        </Array>
                    </mxGeometry>
                </mxCell>
                <mxCell id="47" value="" style="endArrow=classic;startArrow=classic;html=1;entryX=0;entryY=0.5;entryDx=0;entryDy=0;exitX=1;exitY=0.25;exitDx=0;exitDy=0;" edge="1" parent="48" source="24" target="7">
                    <mxGeometry width="50" height="50" relative="1" as="geometry">
                        <mxPoint x="580" y="420" as="sourcePoint"/>
                        <mxPoint x="10" y="180" as="targetPoint"/>
                        <Array as="points">
                            <mxPoint x="580" y="387"/>
                            <mxPoint x="580" y="230"/>
                            <mxPoint x="50" y="230"/>
                            <mxPoint x="50" y="190"/>
                        </Array>
                    </mxGeometry>
                </mxCell>
            </root>
        </mxGraphModel>
    </diagram>
</mxfile>